<svg width="55" height="132" viewBox="0 0 55 132" fill="none" xmlns="http://www.w3.org/2000/svg">
<g>
<rect x="1" width="48" height="132" rx="12" fill="#323A47"/>
</g>
<g>
<rect x="21" y="9.36169" width="9" height="117.021" rx="4.5" fill="#43485A"/>
</g>
<rect x="24" y="15" width="3" height="109" rx="1.5" fill="#0C101B"/>
<line x1="7" y1="14.4787" x2="18" y2="14.4787" stroke="#E8EFF5"/>
<path opacity="0.8" d="M7.5 31.3617H18" stroke="#E8EFF5"/>
<path opacity="0.7" d="M8 48.6809H18" stroke="#E8EFF5"/>
<path opacity="0.6" d="M10 65.5319H18" stroke="#E8EFF5"/>
<path opacity="0.5" d="M11 83.3191H18" stroke="#E8EFF5"/>
<path opacity="0.4" d="M12 101.106H18" stroke="#E8EFF5"/>
<path opacity="0.3" d="M13 118.894H18" stroke="#E8EFF5"/>
<line x1="33" y1="14.4787" x2="44" y2="14.4787" stroke="#E8EFF5"/>
<line opacity="0.8" x1="33" y1="31.3298" x2="43" y2="31.3298" stroke="#E8EFF5"/>
<path opacity="0.7" d="M33 48.6809H42.5" stroke="#E8EFF5"/>
<path opacity="0.6" d="M33 65.5319H41" stroke="#E8EFF5"/>
<path opacity="0.5" d="M33 83.3191H40" stroke="#E8EFF5"/>
<path opacity="0.4" d="M33 101.106H39" stroke="#E8EFF5"/>
<path opacity="0.3" d="M33 118.894H38" stroke="#E8EFF5"/>

</svg>
