<svg width="188" height="126" viewBox="0 0 188 126" fill="none" xmlns="http://www.w3.org/2000/svg">
<g>
<g clip-path="url(#clip0_7_104)">
<rect width="145" height="83" rx="18" transform="matrix(-1 0 0 1 165 20)" fill="url(#paint0_linear_7_104)"/>
<g>
<path d="M155.553 45.3117C155.553 37.0274 148.837 30.3116 140.553 30.3116H118.938V92.6884H140.553C148.837 92.6884 155.553 85.9727 155.553 77.6884V45.3117Z" fill="url(#paint1_linear_7_104)"/>
</g>
<g>
<path d="M133.651 45.1756C133.651 36.6321 126.526 29.814 117.99 30.1901L43.7865 33.4603C35.7668 33.8137 29.4469 40.4183 29.4469 48.4457V75.4954C29.4469 83.5836 35.8596 90.2154 43.9434 90.4869L118.147 92.9793C126.624 93.264 133.651 86.4694 133.651 77.9877V45.1756Z" fill="url(#paint2_linear_7_104)"/>
<path d="M133.651 45.1756C133.651 36.6321 126.526 29.814 117.99 30.1901L43.7865 33.4603C35.7668 33.8137 29.4469 40.4183 29.4469 48.4457V75.4954C29.4469 83.5836 35.8596 90.2154 43.9434 90.4869L118.147 92.9793C126.624 93.264 133.651 86.4694 133.651 77.9877V45.1756Z" fill="url(#paint3_linear_7_104)" fill-opacity="0.2"/>
<path d="M133.151 45.1758C133.151 36.9171 126.263 30.3259 118.012 30.6895L43.8081 33.96C36.0561 34.3018 29.947 40.6858 29.947 48.4453V75.4951C29.947 83.3138 36.1462 89.7248 43.9604 89.9873L118.165 92.4795C126.359 92.7545 133.151 86.1861 133.151 77.9873V45.1758Z" stroke="url(#paint4_linear_7_104)"/>
</g>
<g>
<circle cx="114.056" cy="61.5" r="4.88224" fill="#2CF366"/>
</g>
<path d="M50.4318 65.6465C52.9045 65.6465 54.4396 63.9648 54.4396 61.2754V61.2637C54.4396 58.5801 52.8986 56.8984 50.4318 56.8984C47.9709 56.8984 46.4182 58.5801 46.4182 61.2637V61.2754C46.4182 63.9648 47.9592 65.6465 50.4318 65.6465ZM50.4318 64.334C48.9201 64.334 47.9592 63.1562 47.9592 61.2754V61.2637C47.9592 59.3828 48.926 58.2109 50.4318 58.2109C51.9435 58.2109 52.9045 59.3887 52.9045 61.2637V61.2754C52.9045 63.1387 51.9611 64.334 50.4318 64.334ZM55.6467 65.5H57.1584V62.0488H60.7033V60.8184H57.1584V58.3164H61.0373V57.0449H55.6467V65.5ZM62.1389 65.5H63.6506V62.0488H67.1955V60.8184H63.6506V58.3164H67.5295V57.0449H62.1389V65.5Z" fill="url(#paint5_linear_7_104)"/>
</g>
<rect x="-0.5" y="0.5" width="144" height="82" rx="17.5" transform="matrix(-1 0 0 1 164 20)" stroke="url(#paint6_linear_7_104)"/>
</g>
<defs>




<linearGradient id="paint0_linear_7_104" x1="145" y1="83" x2="-8.21186" y2="19.9571" gradientUnits="userSpaceOnUse">
<stop stop-color="#26313F"/>
<stop offset="1" stop-color="#192028"/>
</linearGradient>
<linearGradient id="paint1_linear_7_104" x1="137.246" y1="30.3116" x2="137.246" y2="92.6884" gradientUnits="userSpaceOnUse">
<stop stop-color="#192028"/>
<stop offset="0.0953539" stop-color="#495D75"/>
<stop offset="0.176803" stop-color="#495D75"/>
<stop offset="1" stop-color="#192028"/>
</linearGradient>
<linearGradient id="paint2_linear_7_104" x1="28.6509" y1="92.2357" x2="140.442" y2="47.4522" gradientUnits="userSpaceOnUse">
<stop offset="0.366957" stop-color="#26313F"/>
<stop offset="0.722363" stop-color="#192028"/>
</linearGradient>
<linearGradient id="paint3_linear_7_104" x1="133.651" y1="92.2357" x2="34.8754" y2="21.775" gradientUnits="userSpaceOnUse">
<stop stop-color="#26313F"/>
<stop offset="0.53062" stop-color="#192028"/>
</linearGradient>
<linearGradient id="paint4_linear_7_104" x1="25.3686" y1="76.078" x2="159.455" y2="63.406" gradientUnits="userSpaceOnUse">
<stop stop-color="#192028"/>
<stop offset="0.764212" stop-color="#313F4F"/>
<stop offset="0.91473" stop-color="#495D75"/>
</linearGradient>
<linearGradient id="paint5_linear_7_104" x1="47.8965" y1="61.5" x2="73.6666" y2="63.3723" gradientUnits="userSpaceOnUse">
<stop stop-color="#26313F"/>
<stop offset="1" stop-color="#495D75"/>
</linearGradient>
<linearGradient id="paint6_linear_7_104" x1="0" y1="0" x2="145" y2="83" gradientUnits="userSpaceOnUse">
<stop stop-color="#192028"/>
<stop offset="1" stop-color="#495D75"/>
</linearGradient>
<clipPath id="clip0_7_104">
<rect width="145" height="83" rx="18" transform="matrix(-1 0 0 1 165 20)" fill="white"/>
</clipPath>
</defs>
</svg>
